<svg width="24" height="38" viewBox="0 0 24 38" fill="none" xmlns="http://www.w3.org/2000/svg">
<path d="M8.44602 26.3111V25.8494C8.45786 23.7069 8.65909 22.0024 9.04972 20.7358C9.45218 19.4692 10.0204 18.4512 10.7543 17.6818C11.4882 16.9006 12.3819 16.1844 13.4354 15.5334C14.1574 15.0836 14.8026 14.5923 15.3707 14.0597C15.9508 13.5152 16.4065 12.9115 16.7379 12.2486C17.0694 11.5739 17.2351 10.8222 17.2351 9.99361C17.2351 9.05848 17.0161 8.24763 16.5781 7.56108C16.1402 6.87453 15.5483 6.34186 14.8026 5.96307C14.0687 5.58428 13.246 5.39488 12.3345 5.39488C11.4941 5.39488 10.6951 5.57836 9.9375 5.94531C9.19176 6.30043 8.57031 6.84493 8.07315 7.57883C7.58783 8.3009 7.31558 9.21828 7.25639 10.331H0.935369C0.994555 8.08191 1.53906 6.19981 2.56889 4.68466C3.61056 3.16951 4.98366 2.03314 6.68821 1.27557C8.40459 0.517991 10.2985 0.139203 12.37 0.139203C14.6309 0.139203 16.6196 0.535747 18.3359 1.32883C20.0642 2.12192 21.4077 3.25237 22.3665 4.72017C23.3371 6.17614 23.8224 7.90436 23.8224 9.90483C23.8224 11.2543 23.6035 12.4616 23.1655 13.527C22.7393 14.5923 22.1297 15.5393 21.3366 16.3679C20.5436 17.1965 19.6025 17.9363 18.5135 18.5874C17.5547 19.1792 16.7675 19.7947 16.152 20.4339C15.5483 21.0732 15.0985 21.8248 14.8026 22.6889C14.5185 23.5412 14.3705 24.5947 14.3587 25.8494V26.3111H8.44602ZM11.5355 37.3906C10.4702 37.3906 9.55279 37.0118 8.78338 36.2543C8.01397 35.4967 7.62926 34.5734 7.62926 33.4844C7.62926 32.419 8.01397 31.5076 8.78338 30.75C9.55279 29.9924 10.4702 29.6136 11.5355 29.6136C12.589 29.6136 13.5005 29.9924 14.2699 30.75C15.0511 31.5076 15.4418 32.419 15.4418 33.4844C15.4418 34.2064 15.2583 34.8634 14.8913 35.4553C14.5362 36.0471 14.0627 36.5206 13.4709 36.8757C12.8909 37.219 12.2457 37.3906 11.5355 37.3906Z" fill="black" fill-opacity="0.1"/>
</svg>
